<?xml version="1.0" encoding="UTF-8"?><svg xmlns="http://www.w3.org/2000/svg" class="header" enable-background="new 0 0 281 66" height="47px" id="Layer_2" preserveAspectRatio="xMidYMid meet" viewBox="0 0 281 66" width="200px"><defs><style>.b2p-yellow-header.header .img {fill:#FFF;}.cls-1{fill:#00365d;}.cls-2{fill:#ffcb00;}</style></defs><title/><polygon class="cls-1" points="110.385 50.862 103.245 50.862 103.174 50.831 97.022 43.323 90.862 50.831 90.792 50.862 85.074 50.862 84.99 50.809 85.002 50.719 94.069 39.589 85.103 28.563 85.093 28.461 85.172 28.407 92.315 28.407 92.383 28.45 97.78 35.139 103.275 28.446 103.346 28.407 109.169 28.407 109.251 28.461 109.238 28.563 100.732 38.774 110.453 50.719 110.463 50.809 110.385 50.862 110.385 50.862"/><path class="cls-1" d="M164.96289,52.6972c-3.1621,0-5.3261,1.917-5.9463,5.2598h10.7666V57.7378a4.8854,4.8854,0,0,0-4.8203-5.0406h0Zm10.3653,8.6797-0.07719.0391H158.90529c0.3369,3.8037,2.8086,5.9717,6.8145,5.9717,2.4628,0,5.0791-.8409,8.7763-2.8057l0.1338,0.0908-0.0107,5.0235-0.0518.0781a26.70194,26.70194,0,0,1-9.6045,2.4346,11.76576,11.76576,0,0,1-12.1455-12.1895,11.76992,11.76992,0,0,1,12.1455-12.1909c6.4209,0,10.5459,4.3262,10.5459,10.2715,0,0.9629-.1719,3.2031-0.1806,3.2768h0Z" transform="translate(-15.91304 -20.3347)"/><path class="cls-1" d="M208.541,44.1074a3.61315,3.61315,0,0,1-3.63671-3.5806,3.6351,3.6351,0,1,1,7.2696,0,3.6098,3.6098,0,0,1-3.63289,3.5806h0Zm-2.94041,27.0889-0.0937-.0909V48.8325l0.0742-.0889h5.9072l0.0713,0.0889V71.1054l-0.0869.0909h-5.8721Z" transform="translate(-15.91304 -20.3347)"/><path class="cls-1" d="M137.10349,67.8437a12.95315,12.95315,0,0,1-3.4091-.4834l0.0088-14.29a12.92946,12.92946,0,0,1,4.00781-.6856c4.08979,0,6.83979,3.0157,6.83979,7.5044,0,4.8345-2.9233,7.9546-7.4473,7.9546h0Zm1.6006-20.0088a15.55112,15.55112,0,0,0-5.1093.9068h-5.876l-0.0864.0908v36.52a13.52687,13.52687,0,0,0,6.0664-2.376l-0.0044-11.1084a26.50715,26.50715,0,0,0,3.7954.3409c8.0498,0,13.2588-4.8213,13.2588-12.2852,0-7.1182-4.95759-12.0889-12.0445-12.0889h0Z" transform="translate(-15.91304 -20.3347)"/><path class="cls-1" d="M194.85059,65.9961a10.84488,10.84488,0,0,1-5.0273,1.4228c-3.6455,0-5.8291-2.5742-5.8291-6.8877,0-4.9834,2.789-8.2114,7.1006-8.2114a8.84483,8.84483,0,0,1,3.7558.9238V65.9961h0Zm0-29.043V48.6113a16.81674,16.81674,0,0,0-4.7734-.7266,12.01959,12.01959,0,0,0-12.2891,12.293c0,6.9717,4.6621,12.0313,11.0772,12.0313a14.23963,14.23963,0,0,0,6.7529-1.8155l-0.0088,2.0176a13.56688,13.56688,0,0,0,5.3027-2.2559V34.5678a13.07,13.07,0,0,0-6.0615,2.3853h0Z" transform="translate(-15.91304 -20.3347)"/><path class="cls-1" d="M232.01469,65.9482a9.55252,9.55252,0,0,1-4.6699,1.5244c-3.9043,0-6.2354-2.5693-6.2354-6.8935,0-4.9121,2.7481-8.2115,6.8457-8.2115a9.05172,9.05172,0,0,1,4.0596,1.2813V65.9482h0ZM238.086,48.4746l-0.25781-.249-4.7696.0087-0.2578.2559v0.8086h-0.1201a14.60875,14.60875,0,0,0-5.9336-1.4141c-6.6045,0-11.7822,5.4805-11.7822,12.4903,0,7.0869,4.6338,11.834,11.5293,11.834a7.57333,7.57333,0,0,0,6.4179-2.6719v2.8672a13.7033,13.7033,0,0,0,5.1651-2.2578L238.086,48.4746h0Z" transform="translate(-15.91304 -20.3347)"/><path class="cls-1" d="M84.66849,65.5498l14.7891-.003a13.34636,13.34636,0,0,1-2.0645,5.5586H82.00689a3.66135,3.66135,0,0,1-3.6177-3.3056l-0.0234-.0733V38.5581l0.0234-.0698a3.66509,3.66509,0,0,1,3.6177-3.3135l0.1709,0.0088,17.2485-.0044a13.5219,13.5219,0,0,1-2.0649,5.5991H84.66849v7.9375h12.564l0.0922,0.0864v5.5083l-0.0922.0869h-12.564V65.5498h0Z" transform="translate(-15.91304 -20.3347)"/><path class="cls-1" d="M245.11039,65.5429a3.215,3.215,0,1,1,0,6.4297,3.21494,3.21494,0,0,1,0-6.4297h0Z" transform="translate(-15.91304 -20.3347)"/><path class="cls-1" d="M254.80079,71.1963V53.831h-3.539V48.9184h3.539v-4.604c0-9.2055,5.61921-11.938,12.1563-11.2119v4.231c-4.1426.0976-6.1768,1.1777-6.1768,5.7578v5.8271h6.1768V53.831h-6.1768V71.1963h-5.9795Z" transform="translate(-15.91304 -20.3347)"/><path class="cls-1" d="M276.82519,59.4966V71.1963h-5.872V48.9184h5.4726v3.7451c2.624-3.1357,5.416-4.3027,8.4024-4.3027h0.4023v6.2774c-7.4414.104-8.4053,0.4604-8.4053,4.8584h0Z" transform="translate(-15.91304 -20.3347)"/><path class="cls-1" d="M294.32909,51.1606l1.1875-3.0967h1.2198v4.3697h-0.794V49.018h-0.0215l-1.3056,3.4156h-0.5909l-1.3037-3.4156h-0.0224v3.4156h-0.7969V48.0639h1.2305l1.1972,3.0967h0Zm-3.3183-2.4072h-1.334v3.6802h-0.8486V48.7534h-1.337V48.0639h3.5196v0.6895h0Z" transform="translate(-15.91304 -20.3347)"/><path class="cls-1" d="M66.2803,66.372a2.83026,2.83026,0,1,0,2.769,2.835A2.7463,2.7463,0,0,0,66.2803,66.372Zm0,5.3819a2.5557,2.5557,0,1,1,2.3555-2.5469A2.37215,2.37215,0,0,1,66.2803,71.7539Z" transform="translate(-15.91304 -20.3347)"/><path class="cls-1" d="M67.5948,68.4902c0-.6777-0.4156-0.9629-1.2222-0.9629h-1.271v3.3496h0.5518V69.4443H66.168l0.8682,1.4326h0.6215l-0.9379-1.4697A0.86063,0.86063,0,0,0,67.5948,68.4902Zm-1.981.4824V67.9414h0.6968c0.353,0,.77.0508,0.77,0.4785,0,0.5127-.3853.5527-0.8223,0.5527H65.6138Z" transform="translate(-15.91304 -20.3347)"/><path class="cls-1" d="M47.149,40.8457l-1.0752-3.0449L36.9507,25.6113l1.6382-.4082L54.3194,38.7998l9.2553-2.6494a13.40087,13.40087,0,0,1,3.2627-.333A26.70141,26.70141,0,0,0,16.2159,51.0508l22.1709-7.7012Z" transform="translate(-15.91304 -20.3347)"/><path class="cls-1" d="M67.812,38.2187a14.28182,14.28182,0,0,1-3.1928,1.5996l-9.2759,2.6485L49.1548,62.334l-1.6074.5224L48.857,47.6836l-0.731-3.1524-8.6904,2.4824L16.4595,52.4218A26.70128,26.70128,0,1,0,67.812,38.2187Z" transform="translate(-15.91304 -20.3347)"/><path class="cls-2 img" d="M48.126,44.5312l0.731,3.1524L47.5474,62.8564l1.6074-.5224,6.1885-19.8672,9.2759-2.6485a14.28182,14.28182,0,0,0,3.1928-1.5996q-0.42991-1.2231-.9746-2.4013a13.40087,13.40087,0,0,0-3.2627.333l-9.2553,2.6494L38.5889,25.2031l-1.6382.4082,9.1231,12.1895,1.0752,3.0449-8.7622,2.5039L16.2159,51.0508c0.0703,0.4589.1499,0.916,0.2436,1.371l22.9761-5.4082Z" transform="translate(-15.91304 -20.3347)"/></svg>