<?xml version="1.0" encoding="utf-8"?>
<!-- Generator: Adobe Illustrator 20.1.0, SVG Export Plug-In . SVG Version: 6.00 Build 0)  -->
<svg version="1.1" id="Calque_1" xmlns="http://www.w3.org/2000/svg" xmlns:xlink="http://www.w3.org/1999/xlink" x="0px" y="0px"
	 viewBox="0 0 350 142.5" style="enable-background:new 0 0 350 142.5;" xml:space="preserve">
<style type="text/css">
	.st0{fill:#58574f;}
	.st1{fill:url(#SVGID_1_);}
	.st2{fill:url(#SVGID_2_);}
	.st3{fill:#AB8944;}
	.st4{fill:url(#SVGID_3_);}
	.st5{opacity:0.55;fill:url(#SVGID_4_);enable-background:new    ;}
	.st6{fill:#A78C3F;}
	.st7{fill:#8F630A;}
	.st8{fill:#DFC676;}
	.st9{fill:url(#SVGID_5_);}
	.st10{fill:url(#SVGID_6_);}
	.st11{fill:url(#SVGID_7_);}
	.st12{fill:#ffffff;}
</style>
<title>Plan de travail 1</title>
<g>
	<g id="Calque_1_1_">
		<path class="st12" d="M170.7,63c4.4-3.6,20.1-11.7,20.1-29.8S175.1,7.1,170.7,3.4l0,0c-4.4,3.6-20.1,11.7-20.1,29.8
			S166.3,59.3,170.7,63"/>

			<linearGradient id="SVGID_1_" gradientUnits="userSpaceOnUse" x1="158.5014" y1="95.7932" x2="184.6772" y2="121.959" gradientTransform="matrix(1 0 0 -1 0 142)">
			<stop  offset="0" style="stop-color:#815A0A"/>
			<stop  offset="7.000000e-02" style="stop-color:#916D1D"/>
			<stop  offset="0.25" style="stop-color:#BB9D4D"/>
			<stop  offset="0.39" style="stop-color:#D5BB6B"/>
			<stop  offset="0.47" style="stop-color:#DFC676"/>
			<stop  offset="0.62" style="stop-color:#DDC374"/>
			<stop  offset="0.72" style="stop-color:#D5BB6D"/>
			<stop  offset="0.79" style="stop-color:#C9AD61"/>
			<stop  offset="0.86" style="stop-color:#B79850"/>
			<stop  offset="0.92" style="stop-color:#A07E3A"/>
			<stop  offset="0.98" style="stop-color:#845E1F"/>
			<stop  offset="0.99" style="stop-color:#815A1C"/>
		</linearGradient>
		<path class="st1" d="M170.7,58.4c0-0.5,0-50.7,0-50.7c5.3,4,16.4,10.5,16.4,25.7c0,14.6-11.3,21.5-15.1,24.1
			C171.5,57.8,171.1,58.1,170.7,58.4"/>

			<radialGradient id="SVGID_2_" cx="9790.4902" cy="980.7341" r="44.06" gradientTransform="matrix(-0.74 0 0 -0.74 7393.6899 772.85)" gradientUnits="userSpaceOnUse">
			<stop  offset="0" style="stop-color:#815A0A"/>
			<stop  offset="0.16" style="stop-color:#845D0D"/>
			<stop  offset="0.28" style="stop-color:#8C6715"/>
			<stop  offset="0.39" style="stop-color:#9B7822"/>
			<stop  offset="0.5" style="stop-color:#AF8F36"/>
			<stop  offset="0.6" style="stop-color:#C9AE4F"/>
			<stop  offset="0.69" style="stop-color:#E6CF6A"/>
			<stop  offset="0.95" style="stop-color:#E6CF6A"/>
			<stop  offset="1" style="stop-color:#E6CF6A"/>
		</radialGradient>
		<path class="st2" d="M170.7,7.7v50.7c-1.2-1.3-16.4-8.2-16.4-25C154.3,18.2,165.6,11.6,170.7,7.7z"/>
		<path class="st3" d="M170.7,60.9c-4.1-3.4-18.3-10.6-18.3-27.7s14.1-24.3,18.3-27.8v-2c-4.4,3.6-20.1,11.7-20.1,29.8
			s15.7,26.1,20.1,29.8L170.7,60.9z"/>

			<linearGradient id="SVGID_3_" gradientUnits="userSpaceOnUse" x1="160.7126" y1="124.2782" x2="191.6231" y2="93.3777" gradientTransform="matrix(-1 0 0 -1 348 142)">
			<stop  offset="1.000000e-02" style="stop-color:#603913"/>
			<stop  offset="1" style="stop-color:#684329"/>
		</linearGradient>
		<path class="st4" d="M170.7,60.9c4.2-3.4,18.3-10.6,18.3-27.8S174.9,8.9,170.7,5.4v-2c4.4,3.6,20.1,11.7,20.1,29.8
			S175.1,59.3,170.7,63V60.9z"/>

			<image style="overflow:visible;enable-background:new    ;" width="33" height="51" xlink:href="38658B1D.png"  transform="matrix(1 0 0 1 154 7.5)">
		</image>

			<linearGradient id="SVGID_4_" gradientUnits="userSpaceOnUse" x1="164.3784" y1="132.126" x2="176.793" y2="85.7988" gradientTransform="matrix(1 0 0 -1 0 142)">
			<stop  offset="0.57" style="stop-color:#FFFFFF"/>
			<stop  offset="0.67" style="stop-color:#FDFDFC"/>
			<stop  offset="0.73" style="stop-color:#F8F7F4"/>
			<stop  offset="0.78" style="stop-color:#EEECE6"/>
			<stop  offset="0.82" style="stop-color:#E1DDD1"/>
			<stop  offset="0.86" style="stop-color:#D0CAB7"/>
			<stop  offset="0.9" style="stop-color:#BAB297"/>
			<stop  offset="0.94" style="stop-color:#A19670"/>
			<stop  offset="0.97" style="stop-color:#857645"/>
			<stop  offset="1" style="stop-color:#645214"/>
			<stop  offset="1" style="stop-color:#635012"/>
		</linearGradient>
		<path class="st5" d="M181.5,17.9c-3.8-5.1-8.8-8-10.8-9.7c-1.4,1-3.5,2.4-5.9,4.5c-1.9,1.6-3.6,3.4-5.1,5.3
			c-2,2.6-3.4,5.5-4.3,8.6c-0.6,2.2-0.8,4.5-0.8,6.8c0,3.3,0.6,6.5,1.9,9.5c2.1,4.8,5.4,8.9,9.7,11.9c0.8,0.6,1.4,1,2.1,1.5l1.3,0.9
			c0.4,0.3,1,0.6,1,0.7l1.7-1.1c0.7-0.5,1.4-0.9,2.2-1.5c1-0.7,1.9-1.4,2.8-2.2c0.3-0.3,0.8-0.7,1.1-1c5.3-4.8,8.3-11.6,8.1-18.7
			C186.7,27.8,184.9,22.3,181.5,17.9z"/>
		<polygon class="st6" points="162.6,18.5 162.2,18 179.1,18 178.7,18.5 		"/>
		<polygon class="st7" points="162.2,19.5 162.6,19.1 162.6,18.5 162.2,18 		"/>
		<polygon class="st8" points="162.6,48.2 162.6,47.6 162.2,47.2 162.2,48.5 		"/>

			<linearGradient id="SVGID_5_" gradientUnits="userSpaceOnUse" x1="162.23" y1="93.67" x2="179.13" y2="93.67" gradientTransform="matrix(1 0 0 -1 0 142)">
			<stop  offset="0" style="stop-color:#B5A24A"/>
			<stop  offset="3.000000e-02" style="stop-color:#B8A54D"/>
			<stop  offset="0.41" style="stop-color:#D4BD6B"/>
			<stop  offset="0.62" style="stop-color:#DFC676"/>
		</linearGradient>
		<polygon class="st9" points="179.1,48.5 162.2,48.5 162.6,48.2 178.7,48.2 		"/>

			<linearGradient id="SVGID_6_" gradientUnits="userSpaceOnUse" x1="162.23" y1="108.675" x2="167.75" y2="108.675" gradientTransform="matrix(1 0 0 -1 0 142)">
			<stop  offset="0" style="stop-color:#DFC676"/>
			<stop  offset="0.65" style="stop-color:#77520A"/>
			<stop  offset="0.78" style="stop-color:#8F630A"/>
			<stop  offset="0.8" style="stop-color:#976D15"/>
			<stop  offset="0.84" style="stop-color:#AC8731"/>
			<stop  offset="0.9" style="stop-color:#CDB05E"/>
			<stop  offset="0.92" style="stop-color:#DFC676"/>
		</linearGradient>
		<path class="st10" d="M162.2,19.5l0.4-0.5c0,0,5.1-0.1,5.1,6.4s0,15.4,0,15.4s0,0.3,0,0.7c-0.1,1.6-0.6,5.7-5.1,6l-0.4-0.4
			c0,0,5,0.4,5-6.3V25.4C167.3,25.4,167.4,19.5,162.2,19.5z"/>

			<linearGradient id="SVGID_7_" gradientUnits="userSpaceOnUse" x1="-1220.3" y1="108.675" x2="-1214.78" y2="108.675" gradientTransform="matrix(-1 0 0 -1 -1041.1801 142)">
			<stop  offset="0.27" style="stop-color:#77520A"/>
			<stop  offset="0.36" style="stop-color:#7E5A13"/>
			<stop  offset="0.49" style="stop-color:#92712C"/>
			<stop  offset="0.65" style="stop-color:#B39654"/>
			<stop  offset="0.85" style="stop-color:#DFC88C"/>
			<stop  offset="0.92" style="stop-color:#F2DDA3"/>
		</linearGradient>
		<path class="st11" d="M179.1,19.5l-0.4-0.5c0,0-5.1-0.1-5.1,6.4s0,15.4,0,15.4s0,0.3,0,0.7c0.1,1.6,0.6,5.7,5.1,6l0.4-0.4
			c0,0-5,0.4-5-6.3V25.4C174.1,25.4,174,19.5,179.1,19.5z"/>
		<polygon class="st8" points="179.1,19.5 178.7,19.1 178.7,18.5 179.1,18 		"/>
		<polygon class="st8" points="178.7,48.2 178.7,47.6 179.1,47.2 179.1,48.5 		"/>
		<path class="st12" d="M162.6,48.2v-0.5c4.5-0.3,5-4.4,5.1-6c0-0.4,0-0.7,0-0.7s0-9,0-15.4s-5.1-6.4-5.1-6.4v-0.6h16.1v0.6
			c0,0-5.1-0.1-5.1,6.4s0,15.4,0,15.4s0,0.3,0,0.7c0.1,1.6,0.6,5.7,5.1,6v0.5H162.6z"/>
		<path class="st0" d="M204.2,107.2v-0.7c-0.5,0-2,0-2-1.9V84.2c0-1.9,1.5-1.8,2-1.9v-0.7h-7.3v0.7c0.5,0,2,0,2,1.9v20.3
			c0,1.9-1.5,1.8-2,1.9v0.7H204.2z"/>
		<path class="st0" d="M12.5,107.2v-0.8c-0.5,0-2.2,0-2.2-2V80.9c0-2,1.6-2,2.2-2v-0.8H4.8v0.8c0.5,0,2.2,0,2.2,2v23.4
			c0,2-1.7,2-2.2,2v0.8L12.5,107.2z"/>
		<path class="st0" d="M337.3,107.2V103h-0.7c0,0.5,0,2-1.9,2h-6.5V84.2c0-1.9,1.5-1.8,2-1.9v-0.7h-7.3v0.7c0.5,0,2,0,2,1.9v20.3
			c0,1.9-1.5,1.8-2,1.9v0.7H337.3L337.3,107.2z"/>
		<path class="st0" d="M138.7,105.8c1.9,0,6.4-1.1,6.4-10.7c0-7.4-3.6-12-8.1-12c-3.2,0-6.8,2.1-6.8,10.4
			C130.2,100.3,133.6,105.8,138.7,105.8 M137.5,107.7c-7.6,0-10.7-7.3-10.7-13.3c0-5.8,3-13.3,10.9-13.3c6.6,0,10.7,4.9,10.7,12.7
			S144.2,107.7,137.5,107.7"/>
		<path class="st0" d="M225,81.6v0.7c0.5,0,2,0,2,1.9v17.1l-13-19.7h-4.3v0.7c0.5,0,2,0,2,1.9v20.3c0,1.9-1.5,1.8-2,1.9v0.7h6.3
			v-0.7c-0.5,0-2,0-2-1.9V87.6l13.1,19.6h2.3V84.2c0-1.9,1.5-1.8,2-1.9v-0.7L225,81.6z"/>
		<path class="st0" d="M273.1,81.6v0.7c0.5,0,2,0,2,1.9v17.1L262,81.6h-4.3v0.7c0.5,0,2,0,2,1.9v20.3c0,1.9-1.5,1.8-2,1.9v0.7h6.3
			v-0.7c-0.5,0-2,0-2-1.9V87.6l13.1,19.6h2.3V84.2c0-1.9,1.5-1.8,2-1.9v-0.7L273.1,81.6z"/>
		<path class="st0" d="M77.6,107.2V103h-0.7c0,0.5,0,2-1.9,2h-7.5v-9.9h6.1c1.9,0,1.8,1.5,1.9,2h0.7v-5.9h-0.7
			c0.1,0.9-0.6,1.7-1.5,1.8c-0.1,0-0.2,0-0.4,0h-6.1v-9.2H75c1.9,0,1.8,1.5,1.9,2h0.7v-4.2H62.2v0.7c0.5,0,2,0,2,1.9v20.3
			c0,1.9-1.5,1.8-2,1.9v0.7H77.6z"/>
		<path class="st0" d="M251.9,107.2V103h-0.7c0,0.5,0,2-1.9,2h-7.6v-9.9h6.1c1.9,0,1.9,1.5,1.9,2h0.7v-5.9h-0.7
			c0,0.9-0.7,1.7-1.6,1.7c-0.1,0-0.2,0-0.3,0h-6.1v-9.2h7.6c1.9,0,1.9,1.5,1.9,2h0.7v-4.2h-15.4v0.7c0.5,0,2,0,2,1.9v20.3
			c0,1.9-1.5,1.8-2,1.9v0.7H251.9z"/>
		<path class="st0" d="M116.8,107.5c1.7,0,5.2-0.4,7.1-1.5l0.9-5.6l-0.8-0.1c-1.4,4.2-4.1,5-6.8,5c-4,0-9.5-3.4-9.5-12.4
			c0-6.4,2.5-13.1,8.5-13.1c6.6,0,7.3,5.1,7.4,5.8h0.8V79c-2.5-0.7-5-1.1-7.6-1.2C108,77.9,104,84,104,92.9
			C104,101.1,108.5,107.5,116.8,107.5z"/>
		<path class="st0" d="M299.4,85.8h-0.7c0-0.5,0-2-1.9-2h-4.4v20.8c0,1.9,1.5,1.8,2,1.9v0.7h-7.3v-0.7c0.5,0,2,0,2-1.9V83.8h-4.5
			c-1.9,0-1.9,1.5-1.9,2H282v-4.2h17.4L299.4,85.8z"/>
		<path class="st0" d="M313.2,98.6l2.2,6c0.7,1.9-0.9,1.8-1.3,1.9v0.7h7.1v-0.7c-0.5,0-1.9-0.3-2.9-3l-7.9-21.8h-2.1l-8,21.9
			c-1,2.7-2.1,2.9-2.6,2.9v0.7h6.2v-0.7c-0.5,0-2,0-1.3-1.9l2.2-6L313.2,98.6z M308.9,86.8l3.6,9.8h-7.1L308.9,86.8z"/>
		<path class="st0" d="M32.6,81.6v0.7c0.5,0,2,0,2,1.9v17.1L21.5,81.6h-4.3v0.7c0.5,0,2,0,2,1.9v20.3c0,1.9-1.5,1.8-2,1.9v0.7h6.3
			v-0.7c-0.5,0-2,0-2-1.9V87.6l13.1,19.6H37V84.2c0-1.9,1.5-1.8,2-1.9v-0.7L32.6,81.6z"/>
		<path class="st0" d="M59,85.8h-0.7c0-0.5,0-2-1.9-2h-4.5v20.8c0,1.9,1.5,1.8,2,1.9v0.7h-7.2v-0.7c0.5,0,2,0,2-1.9V83.8h-4.5
			c-1.9,0-1.8,1.5-1.9,2h-0.7v-4.2H59V85.8z"/>
		<path class="st0" d="M167.3,81.6v0.7c0.5,0,2,0,2,1.9v17.1l-13.1-19.7h-4.3v0.7c0.5,0,2,0,2,1.9v20.3c0,1.9-1.5,1.8-2,1.9v0.7h6.3
			v-0.7c-0.5,0-2,0-2-1.9V87.6l13.1,19.6h2.3V84.2c0-1.9,1.5-1.8,2-1.9v-0.7L167.3,81.6z"/>
		<path class="st0" d="M193.7,85.8h-0.7c0-0.5,0-2-1.9-2h-4.4v20.8c0,1.9,1.5,1.8,2,1.9v0.7h-7.3v-0.7c0.5,0,2,0,2-1.9V83.8h-4.5
			c-1.9,0-1.9,1.5-1.9,2h-0.7v-4.2h17.4L193.7,85.8z"/>
		<path class="st0" d="M101.2,105.3c-3.1-2.8-5.1-6-8-10.2c2.8-1.2,4.7-3.9,4.7-7c0-2.6-1.5-6.5-8.5-6.5h-7v0.7c0.5,0,2,0,2,1.9
			v20.3c0,1.9-1.5,1.8-2,1.9v0.7h7.3v-0.7c-0.5,0-2,0-2-1.9v-8.6h2.4c1.1,1.6,4.2,5.9,5.1,7.2c2.6,3.7,4.9,4.5,7.4,4.5
			c0.5,0,1-0.1,1.5-0.2v-0.7C103,106.6,101.9,106.1,101.2,105.3z M88,94h-0.4V83.3H88c4.8,0,6.4,1.8,6.4,5C94.4,90.7,93.2,94,88,94z
			"/>
		<path class="st0" d="M342.4,101.7c0.5,0,1,0.1,1.4,0.4c0.4,0.2,0.8,0.6,1,1c0.3,0.4,0.4,0.9,0.4,1.4c0,0.5-0.1,1-0.4,1.4
			c-0.2,0.4-0.6,0.8-1,1c-0.9,0.5-2,0.5-2.8,0c-0.4-0.2-0.8-0.6-1-1c-0.5-0.9-0.5-2,0-2.8c0.2-0.4,0.6-0.8,1-1
			C341.4,101.8,341.9,101.7,342.4,101.7z M342.4,102.2c-1.3,0-2.4,1-2.4,2.3c0,0,0,0,0,0c0,1.3,1,2.4,2.3,2.4c1.3,0,2.4-1,2.4-2.3
			c0-0.7-0.3-1.3-0.7-1.7C343.6,102.4,343,102.2,342.4,102.2z M341.8,106.1h-0.5v-3h1c0.3,0,0.5,0,0.8,0.1c0.3,0.1,0.5,0.4,0.5,0.7
			c0,0.2-0.1,0.4-0.2,0.6c-0.2,0.2-0.4,0.3-0.6,0.3c0.1,0.1,0.2,0.1,0.3,0.2c0.1,0.2,0.3,0.3,0.4,0.5l0.4,0.6h-0.6l-0.3-0.5
			c-0.1-0.2-0.3-0.5-0.5-0.7c-0.1-0.1-0.3-0.2-0.5-0.2h-0.3L341.8,106.1z M341.8,103.4v0.9h0.6c0.2,0,0.4,0,0.6-0.1
			c0.2-0.1,0.2-0.4,0.1-0.6c0,0-0.1-0.1-0.1-0.1c-0.2-0.1-0.4-0.1-0.6-0.1L341.8,103.4z"/>
		<path class="st0" d="M21.4,124.8h1.9v14.1h-2v-11l-4.3,5.5h-0.4l-4.4-5.5v11h-2v-14.1h1.9l4.7,5.8L21.4,124.8z"/>
		<path class="st0" d="M35.2,124.7h1.4l6.4,14.2h-2.1l-1.9-4.2h-6l-1.8,4.2h-2.1L35.2,124.7z M38.2,132.9l-2.3-5.1l-2.1,5.2
			L38.2,132.9z"/>
		<path class="st0" d="M48.9,138.9v-14.1h3.5c1.2-0.1,2.4,0.3,3.4,1.1c0.8,0.7,1.3,1.8,1.3,2.9c0.1,1.6-0.9,3-2.4,3.5
			c0.5,0.3,0.9,0.7,1.3,1.2c0.7,0.9,1.3,1.7,1.8,2.7c0.5,0.8,0.9,1.4,1.2,1.8l0.8,1h-2.4l-0.6-0.9l-0.1-0.2l-0.4-0.6l-0.6-1
			l-0.7-1.1c-0.3-0.5-0.7-1-1.2-1.4c-0.3-0.3-0.6-0.5-0.9-0.7c-0.4-0.2-0.9-0.3-1.4-0.2h-0.5v6.1L48.9,138.9z M51.5,126.5h-0.6v4.5
			h0.8c0.7,0,1.4,0,2.1-0.3c0.4-0.2,0.7-0.4,0.9-0.8c0.2-0.4,0.3-0.8,0.3-1.2c0-0.4-0.1-0.9-0.3-1.2c-0.2-0.4-0.6-0.6-1-0.8
			C53,126.6,52.3,126.5,51.5,126.5L51.5,126.5z"/>
		<path class="st0" d="M69.2,133l-1.5-0.9c-0.8-0.4-1.5-1-2.1-1.7c-0.4-0.6-0.6-1.3-0.6-2c0-1,0.4-2,1.2-2.7c0.8-0.7,1.9-1.1,3-1
			c1.2,0,2.3,0.3,3.3,1v2.3c-0.9-0.9-2-1.4-3.3-1.5c-0.6,0-1.2,0.1-1.6,0.5c-0.4,0.3-0.6,0.7-0.6,1.2c0,0.4,0.2,0.9,0.5,1.2
			c0.4,0.5,0.9,0.9,1.5,1.2l1.5,0.9c1.6,0.7,2.6,2.2,2.6,3.9c0,1-0.4,2-1.2,2.7c-0.8,0.7-1.9,1.1-3,1.1c-1.4,0-2.7-0.4-3.8-1.3v-2.6
			c0.9,1.3,2.3,2,3.8,2.1c0.6,0,1.1-0.2,1.6-0.5c0.4-0.3,0.6-0.8,0.6-1.3C71.1,134.6,70.5,133.8,69.2,133z"/>
		<path class="st0" d="M79.5,124.8h8v1.8h-6v4.3h5.8v1.8h-5.8v4.4h6.2v1.8h-8.2V124.8z"/>
		<path class="st0" d="M94.3,124.8h2v14.1h-2V124.8z"/>
		<path class="st0" d="M103.8,124.8h2v12.3h6.4v1.8h-8.4L103.8,124.8z"/>
		<path class="st0" d="M118.3,124.8h2v12.3h6.4v1.8h-8.4L118.3,124.8z"/>
		<path class="st0" d="M132.8,124.8h8v1.8h-6v4.3h5.8v1.8h-5.8v4.4h6.2v1.8h-8.2L132.8,124.8z"/>
		<path class="st0" d="M187.7,124.8h2v14.1h-2v-6.1h-7.9v6.1h-2v-14.1h2v6.1h7.9V124.8z"/>
		<path class="st0" d="M204.1,124.6c2-0.1,4,0.7,5.4,2.1c1.4,1.3,2.2,3.2,2.2,5.2c0.1,2-0.8,3.8-2.2,5.2c-1.5,1.4-3.5,2.1-5.5,2
			c-2,0.1-3.9-0.6-5.3-2c-1.4-1.3-2.2-3.2-2.1-5.1c-0.1-2,0.7-3.9,2.1-5.2C200.1,125.3,202.1,124.5,204.1,124.6z M204.2,126.5
			c-1.5-0.1-2.9,0.5-4,1.5c-1,1-1.6,2.4-1.6,3.9c0,1.4,0.5,2.8,1.6,3.8c2.2,2,5.6,2,7.9,0c1-1,1.6-2.4,1.6-3.9
			c0-1.4-0.5-2.8-1.6-3.8C207,127.1,205.6,126.5,204.2,126.5z"/>
		<path class="st0" d="M216,124.8h11.8v1.8h-4.9v12.3h-2v-12.3H216V124.8z"/>
		<path class="st0" d="M234.1,124.8h8v1.8h-6v4.3h5.8v1.8h-5.8v4.4h6.2v1.8h-8.2V124.8z"/>
		<path class="st0" d="M248.8,124.8h2v12.3h6.4v1.8h-8.4L248.8,124.8z"/>
		<path class="st0" d="M273.4,138.9v-14.1h4.8c1.6-0.1,3.1,0.2,4.6,0.9c1.1,0.6,2,1.5,2.7,2.5c0.7,1.1,1,2.4,1,3.7
			c0,1.9-0.7,3.7-2.1,5c-0.7,0.7-1.5,1.2-2.4,1.5c-0.5,0.2-1,0.3-1.5,0.4c-0.8,0.1-1.7,0.1-2.5,0.1L273.4,138.9z M277.9,126.6h-2.5
			v10.5h2.6c0.8,0,1.6-0.1,2.4-0.2c0.5-0.1,1-0.3,1.4-0.5c0.4-0.2,0.7-0.5,1-0.8c1-1,1.5-2.4,1.5-3.8c0-1.4-0.5-2.8-1.5-3.7
			c-0.4-0.4-0.8-0.7-1.3-0.9c-0.4-0.2-0.9-0.4-1.4-0.4C279.3,126.6,278.6,126.6,277.9,126.6z"/>
		<path class="st0" d="M293.3,124.8h2v14.1h-2V124.8z"/>
		<path class="st0" d="M302.8,124.8h8v1.8h-6v4.3h5.8v1.8h-5.8v4.4h6.2v1.8h-8.2L302.8,124.8z"/>
		<path class="st0" d="M327.3,124.8h2v8c0,0.8-0.1,1.7-0.2,2.5c-0.1,0.5-0.3,1-0.6,1.4c-0.2,0.4-0.5,0.7-0.9,1
			c-1.2,1-2.8,1.5-4.4,1.4c-1.6,0.1-3.2-0.4-4.4-1.4c-0.3-0.3-0.6-0.6-0.9-1c-0.3-0.4-0.5-0.9-0.6-1.4c-0.2-0.8-0.3-1.7-0.2-2.5v-8
			h2v8c-0.1,0.9,0.1,1.9,0.5,2.8c0.3,0.5,0.8,1,1.4,1.3c0.7,0.3,1.4,0.5,2.2,0.5c1.1,0,2.1-0.3,2.9-0.9c0.4-0.3,0.7-0.7,0.9-1.2
			c0.2-0.8,0.3-1.6,0.3-2.4L327.3,124.8z"/>
		<rect x="154" y="133.1" class="st0" width="9.7" height="1.1"/>
	</g>
</g>
</svg>
